<?xml version="1.0" standalone="no"?>
<!DOCTYPE svg PUBLIC "-//W3C//DTD SVG 20010904//EN"
 "http://www.w3.org/TR/2001/REC-SVG-20010904/DTD/svg10.dtd">
<svg version="1.0" xmlns="http://www.w3.org/2000/svg"
 width="1280.000000pt" height="640.000000pt" viewBox="0 0 1280.000000 640.000000"
 preserveAspectRatio="xMidYMid meet">
<metadata>
Created by potrace 1.15, written by Peter Selinger 2001-2017
</metadata>
<g transform="translate(0.000000,640.000000) scale(0.100000,-0.100000)"
fill="#000000" stroke="none">
<path d="M12680 3676 c-23 -22 -1003 -192 -1480 -257 -323 -43 -1037 -105
-1645 -141 l-40 -3 -5 54 c-7 62 -33 91 -84 91 -49 0 -78 -37 -84 -104 l-4
-55 -62 -5 c-84 -8 -310 -22 -711 -46 -187 -11 -412 -24 -500 -30 -88 -5 -239
-14 -335 -20 -96 -5 -215 -12 -265 -15 -437 -25 -1243 -61 -1934 -85 -628 -22
-1542 -10 -2571 35 -686 30 -2107 108 -2713 150 -119 8 -225 15 -233 15 -13 0
-11 -9 11 -48 60 -104 123 -177 198 -229 34 -24 57 -29 195 -44 180 -20 307
-31 657 -59 428 -34 805 -60 1302 -90 923 -54 1352 -70 2113 -77 768 -7 1511
14 2695 77 413 21 453 24 888 50 89 5 241 14 337 20 96 6 283 17 415 25 132 8
281 18 330 20 50 3 111 8 138 11 l47 5 0 -40 c0 -53 18 -89 51 -107 39 -20 53
-18 88 12 29 24 31 31 31 90 0 35 2 64 4 64 37 0 1090 92 1316 115 80 8 170
17 200 20 262 24 873 128 1468 250 122 25 233 43 245 40 12 -3 30 0 41 8 18
13 18 17 -4 148 -12 74 -24 142 -26 152 -6 21 -53 23 -74 3z"/>
</g>
</svg>
